<?xml version="1.0" encoding="UTF-8" standalone="no"?>
<svg
   viewBox="0 0 48 48"
   width="480"
   height="480"
   version="1.1"
   id="svg3"
   sodipodi:docname="red_carpet.svg"
   inkscape:version="1.4 (86a8ad7, 2024-10-11)"
   xmlns:inkscape="http://www.inkscape.org/namespaces/inkscape"
   xmlns:sodipodi="http://sodipodi.sourceforge.net/DTD/sodipodi-0.dtd"
   xmlns="http://www.w3.org/2000/svg"
   xmlns:svg="http://www.w3.org/2000/svg">
  <defs
     id="defs3" />
  <sodipodi:namedview
     id="namedview3"
     pagecolor="#ffffff"
     bordercolor="#000000"
     borderopacity="0.25"
     inkscape:showpageshadow="2"
     inkscape:pageopacity="0.0"
     inkscape:pagecheckerboard="0"
     inkscape:deskcolor="#d1d1d1"
     showguides="true"
     inkscape:zoom="1.2035547"
     inkscape:cx="253.83143"
     inkscape:cy="247.18445"
     inkscape:window-width="1920"
     inkscape:window-height="1013"
     inkscape:window-x="-9"
     inkscape:window-y="29"
     inkscape:window-maximized="1"
     inkscape:current-layer="svg3">
    <sodipodi:guide
       position="2.5081952,46.005907"
       orientation="0,-1"
       id="guide3"
       inkscape:locked="false" />
    <sodipodi:guide
       position="1.999286,46.639447"
       orientation="1,0"
       id="guide4"
       inkscape:locked="false" />
    <sodipodi:guide
       position="0.89838047,2.000843"
       orientation="0,-1"
       id="guide5"
       inkscape:locked="false" />
    <sodipodi:guide
       position="46.002448,1.0354956"
       orientation="1,0"
       id="guide6"
       inkscape:locked="false" />
  </sodipodi:namedview>
  <g
     id="g6"
     transform="translate(0,-3)">
    <path
       fill="#ffc107"
       d="m 20.806854,17.9 c -0.09554,0.5 -0.477723,0.9 -0.955445,0.9 0,0 -0.09554,0 -0.09554,0 -0.477723,0 -0.859901,-0.5 -0.859901,-1.1 0.09554,-0.6 0.477723,-1 1.05099,-0.9 0.573266,0 0.955445,0.5 0.8599,1.1 z m 1.91089,-0.9 c -0.573267,0 -0.955445,0.4 -0.955445,1 0,0.6 0.382178,1 0.955445,1 0,0 0,0 0,0 0.477722,0 0.955444,-0.4 0.955444,-1 -0.09554,-0.5 -0.477722,-1 -0.955444,-1 z m -5.446036,-0.6 c -0.477722,-0.1 -1.05099,0.3 -1.146534,0.8 -0.09554,0.5 0.286633,1.1 0.764356,1.2 0.09554,0 0.09554,0 0.191088,0 0.477724,0 0.859901,-0.3 0.955446,-0.8 0.09554,-0.6 -0.286633,-1.1 -0.764356,-1.2 z m -5.254947,-1.5 c -0.477723,-0.2 -1.050989,0.1 -1.242079,0.6 -0.191089,0.5 0.09554,1.1 0.573267,1.3 0.09554,0 0.191089,0.1 0.382178,0.1 0.382178,0 0.764356,-0.2 0.859901,-0.6 0.191089,-0.6 0,-1.2 -0.573267,-1.4 z m 2.579701,0.9 c -0.477722,-0.1 -1.050989,0.2 -1.146534,0.7 -0.09554,0.5 0.19109,1.1 0.668812,1.2 0.09554,0 0.191089,0 0.286633,0 0.382178,0 0.859901,-0.3 0.955445,-0.7 0.09554,-0.5 -0.191089,-1.1 -0.764356,-1.2 z M 9.6281485,13.7 c -0.4777224,-0.3 -1.0509893,-0.1 -1.3376229,0.4 -0.2866334,0.5 -0.095545,1.1 0.3821781,1.4 0.095545,0.1 0.2866334,0.1 0.4777224,0.1 0.3821779,0 0.6688115,-0.2 0.8599009,-0.5 0.286633,-0.5 0.09554,-1.1 -0.3821785,-1.4 z M 25.392989,17 c -0.573266,0 -0.955445,0.5 -0.955445,1 0,0.5 0.477723,1 0.955445,1 0,0 0,0 0,0 0.573268,0 0.955445,-0.5 0.955445,-1 0,-0.6 -0.382177,-1 -0.955445,-1 z m 2.770791,-0.2 c -0.477723,0.1 -0.955445,0.5 -0.8599,1.1 0.09554,0.5 0.477722,0.9 0.955445,0.9 0,0 0.09554,0 0.09554,0 0.477722,0 0.955445,-0.5 0.859901,-1.1 -0.09554,-0.6 -0.573268,-1 -1.05099,-0.9 z m 10.318805,-3 c -0.477722,0.3 -0.668812,0.9 -0.382178,1.4 0.191088,0.3 0.477722,0.5 0.859901,0.5 0.191088,0 0.286633,0 0.477722,-0.1 0.477722,-0.3 0.668811,-0.9 0.382178,-1.4 -0.286634,-0.5 -0.8599,-0.7 -1.337623,-0.4 z m -2.484157,1.1 c -0.477722,0.2 -0.764356,0.8 -0.573267,1.3 0.191089,0.4 0.477722,0.6 0.859901,0.6 0.09554,0 0.191089,0 0.382177,-0.1 0.477723,-0.2 0.764357,-0.8 0.573268,-1.3 -0.191089,-0.4 -0.764356,-0.7 -1.242079,-0.5 z m -5.159402,1.5 c -0.477723,0.1 -0.8599,0.6 -0.764356,1.2 0.09554,0.5 0.477722,0.8 0.955444,0.8 0,0 0.09554,0 0.191089,0 0.477724,-0.1 0.859901,-0.6 0.764356,-1.2 -0.191089,-0.5 -0.668811,-0.9 -1.146533,-0.8 z m 2.675245,-0.6 c -0.477722,0.1 -0.764356,0.7 -0.668811,1.2 0.09554,0.4 0.477723,0.7 0.955445,0.7 0.09554,0 0.191089,0 0.286634,0 C 34.565261,17.6 34.851895,17 34.75635,16.5 34.469716,16 33.991994,15.6 33.514271,15.8 Z M 5.9019134,11 c -1.0509895,0 -1.9108898,0.9 -1.9108898,2 v 26 c 0,1.1 1.9108898,1 1.9108898,1 0,0 1.9108898,0.1 1.9108898,-1 V 13 c 0,-1.1 -0.8599004,-2 -1.9108898,-2 z M 42.20882,11 c -1.050989,0 -1.91089,0.9 -1.91089,2 v 26 c 0,1.1 1.91089,1 1.91089,1 0,0 1.91089,0.1 1.91089,-1 V 13 c 0,-1.1 -0.859901,-2 -1.91089,-2 z"
       id="path1"
       style="stroke-width:0.977469" />
    <path
       fill="#ff3d00"
       d="M 37,41 H 11 l 8,-18 h 9 z"
       id="path2" />
    <path
       fill="#dd9f05"
       d="m 7.8128032,9 c 0,1.1 -0.8599004,2 -1.9108898,2 -1.0509895,0 -1.9108898,-0.9 -1.9108898,-2 0,-1.1 0.8599003,-2 1.9108898,-2 1.0509894,0 1.9108898,0.9 1.9108898,2 z M 3.9910236,38 2.0801337,41 H 9.7236931 L 7.8128032,38 Z M 42.20882,7 c -1.050989,0 -1.91089,0.9 -1.91089,2 0,1.1 0.859901,2 1.91089,2 1.050989,0 1.91089,-0.9 1.91089,-2 0,-1.1 -0.859901,-2 -1.91089,-2 z m -1.91089,31 -1.91089,3 h 7.64356 l -1.91089,-3 z"
       id="path3"
       style="stroke-width:0.977469" />
  </g>
  <g
     id="g4"
     transform="matrix(1.6,0,0,1.6,-30.230773,8.8083376)">
    <path
       fill="#cfd8dc"
       d="m 43.562013,18.410105 h -1.860017 -1.860018 c 0,0 -4.095389,0.871976 -4.092038,4.836045 h 11.904112 c 0.06958,-3.871068 -4.092039,-4.836045 -4.092039,-4.836045 z"
       id="path1-7"
       style="stroke-width:0.372003" />
    <path
       fill="#ff9800"
       d="m 41.701996,18.782108 -1.860018,-0.372003 v -2.232021 h 3.720035 v 2.232021 z"
       id="path2-1"
       style="stroke-width:0.372003" />
    <path
       fill="#ffa726"
       d="m 45.794034,13.946063 c 0,0.411067 -0.332958,0.744007 -0.744007,0.744007 -0.410692,0 -0.744007,-0.33294 -0.744007,-0.744007 0,-0.411067 0.333315,-0.744007 0.744007,-0.744007 0.411049,0 0.744007,0.33294 0.744007,0.744007 m -6.696063,0 c 0,-0.411067 -0.332958,-0.744007 -0.744007,-0.744007 -0.411049,0 -0.744007,0.33294 -0.744007,0.744007 0,0.411067 0.332958,0.744007 0.744007,0.744007 0.411049,0 0.744007,-0.33294 0.744007,-0.744007"
       id="path3-1"
       style="stroke-width:0.372003" />
    <path
       fill="#ffb74d"
       d="m 45.050027,11.714042 c 0,-2.8402467 -6.696063,-1.8492294 -6.696063,0 v 2.604024 c 0,1.84923 1.498799,3.348032 3.348032,3.348032 1.849595,0 3.348031,-1.498802 3.348031,-3.348032 z"
       id="path4"
       style="stroke-width:0.372003" />
    <path
       fill="#424242"
       d="m 41.701996,8.3660105 c -2.259925,0 -3.720035,1.8324895 -3.720035,4.0920385 v 0.8504 l 0.744007,0.637614 v -1.860018 l 4.464042,-0.279002 1.488014,0.279002 v 1.860018 l 0.744007,-0.64803 v -0.839984 c 0,-1.497314 -0.38617,-2.9819801 -2.232021,-3.3480315 l -0.372004,-0.744007 z"
       id="path5"
       style="stroke-width:0.372003" />
    <path
       fill="#784719"
       d="m 42.818006,13.946063 c 0,-0.204971 0.166658,-0.372004 0.372004,-0.372004 0.205346,0 0.372003,0.167033 0.372003,0.372004 0,0.204971 -0.166657,0.372003 -0.372003,0.372003 -0.205346,0 -0.372004,-0.167032 -0.372004,-0.372003 m -2.976028,0 c 0,0.204971 0.166658,0.372003 0.372004,0.372003 0.205346,0 0.372003,-0.167032 0.372003,-0.372003 0,-0.204971 -0.166657,-0.372004 -0.372003,-0.372004 -0.205346,0 -0.372004,0.167033 -0.372004,0.372004"
       id="path6"
       style="stroke-width:0.372003" />
    <path
       fill="#1a237e"
       d="m 46.488187,9.9280532 c -0.281604,0.7224308 -1.066156,1.4139848 -1.066156,1.4139848 0,0 -0.882768,-0.927032 -3.719666,-0.927032 -2.837643,0 -3.720404,0.927032 -3.720404,0.927032 0,0 -0.78419,-0.691554 -1.065424,-1.4139848 C 36.868325,9.804548 36.769938,9.5828339 37.122597,9.5210814 39.498616,9.1029494 40.820716,7.25 41.702365,7.25 c 1.3221,0 2.203373,1.8529494 4.579363,2.2714534 0.352659,0.061383 0.25445,0.2830976 0.206477,0.4066028 z"
       id="path7"
       style="stroke-width:0.372003" />
    <path
       fill="#3f51b5"
       d="m 47.282048,19.898119 -3.348031,-1.395013 v 1.488014 l 3.348031,1.395013 z m -11.160105,1.488014 3.348032,-1.395013 v -1.488014 l -3.348032,1.395013 z"
       id="path8"
       style="stroke-width:0.372003" />
    <polygon
       fill="#3f51b5"
       points="24.999,36 25.999,45 21.999,45 22.999,36 21.999,35 23.999,33 25.999,35 "
       id="polygon8"
       transform="matrix(0.3720035,0,0,0.3720035,32.774281,6.505993)" />
    <path
       fill="#3f51b5"
       d="m 37.981961,11.342038 v 0.744007 h 7.44007 v -0.744007 c 0,0 -0.882768,-0.927032 -3.719666,-0.927032 -2.837643,0 -3.720404,0.927032 -3.720404,0.927032 z"
       id="path9"
       style="stroke-width:0.372003" />
    <path
       fill="#263238"
       d="m 45.422031,12.085301 c 0,0 -0.654726,1.116755 -3.719666,1.116755 -3.065309,0 -3.720404,-1.116755 -3.720404,-1.116755 0,0 1.059835,-0.743263 3.720404,-0.743263 2.660194,0 3.719666,0.743263 3.719666,0.743263 z"
       id="path10"
       style="stroke-width:0.372003" />
    <path
       fill="#ffeb3b"
       d="m 42.446003,8.7235059 c 0,0 -0.332958,-0.3574924 -0.744007,-0.3574924 -0.410692,0 -0.744007,0.3574924 -0.744007,0.3574924 0,0.4110668 0.333672,1.1305186 0.744007,1.1305186 0.411049,0 0.744007,-0.7194548 0.744007,-1.1305186 z"
       id="path11"
       style="stroke-width:0.372003" />
    <rect
       width="2.2320211"
       height="1.1160105"
       x="37.237961"
       y="22.13014"
       fill="#3f51b5"
       id="rect11"
       style="stroke-width:0.372003" />
    <rect
       width="2.2320211"
       height="1.1160105"
       x="43.934021"
       y="22.13014"
       fill="#3f51b5"
       id="rect12"
       style="stroke-width:0.372003" />
  </g>
</svg>
