<svg version="1.2" xmlns="http://www.w3.org/2000/svg" viewBox="0 0 150 150" width="150" height="150"><path fill="#1c3c49" d="m74.2 75.1q-1 0-2-0.4-1-0.4-1.7-1.2-0.8-0.7-1.2-1.7-0.4-1-0.4-2.1 0-1 0.4-2 0.4-1 1.2-1.8 0.7-0.7 1.7-1.1 1-0.4 2-0.4 1.1 0 2.1 0.4 1 0.4 1.7 1.1 0.8 0.8 1.2 1.8 0.4 1 0.4 2 0 1.1-0.4 2.1-0.4 1-1.2 1.7-0.7 0.8-1.7 1.2-1 0.4-2.1 0.4zm0-7.2c-0.9 0-1.7 0.8-1.7 1.8 0 1 0.8 1.8 1.7 1.8 1 0 1.8-0.8 1.8-1.8q0-0.3-0.1-0.7-0.1-0.3-0.4-0.5-0.2-0.3-0.6-0.4-0.3-0.2-0.7-0.2z"/><path fill-rule="evenodd" fill="#1c3c49" d="m41.1 72.1c-1.3 0-2.4-1-2.4-2.4 0-1.3 1.1-2.4 2.4-2.4 1.4 0 2.5 1.1 2.5 2.4 0 1.4-1.1 2.4-2.5 2.4z"/><path fill-rule="evenodd" fill="#1c3c49" d="m107 72.1c-1.3 0-2.4-1-2.4-2.4 0-1.3 1.1-2.4 2.4-2.4 1.4 0 2.4 1.1 2.4 2.4 0 1.4-1 2.4-2.4 2.4z"/><path fill-rule="evenodd" fill="#1c3c49" d="m74.2 112.6c-2.1 0-3.7-1.6-3.7-3.7 0-2.1 1.6-3.8 3.7-3.8 2.1 0 3.8 1.7 3.8 3.8 0 2.1-1.7 3.7-3.8 3.7z"/><path fill-rule="evenodd" fill="#1c3c49" d="m74.2 35.1c-2.1 0-3.8-1.6-3.8-3.7 0-2.1 1.7-3.8 3.8-3.8 2.1 0 3.8 1.7 3.8 3.8 0 2.1-1.7 3.7-3.8 3.7z"/><path fill-rule="evenodd" fill="#1c3c49" d="m74.2 127.8c-2.1 0-3.7-1.7-3.7-3.7 0-2.1 1.6-3.8 3.7-3.8 2.1 0 3.8 1.7 3.8 3.8 0 2-1.7 3.7-3.8 3.7z"/><path fill-rule="evenodd" fill="#1c3c49" d="m5.4 72.2c-1.3 0-2.4-1.1-2.4-2.5 0-1.3 1.1-2.4 2.4-2.4 1.4 0 2.5 1.1 2.5 2.4 0 1.4-1.1 2.5-2.5 2.5z"/><path fill="#1c3c49" d="m10.8 68.8q-0.2-0.9-0.6-1.7-0.5-0.9-1.3-1.5-0.7-0.6-1.6-1-0.9-0.3-1.9-0.3-1 0-2 0.4-1 0.4-1.8 1.2-0.8 0.8-1.2 1.8-0.4 1-0.4 2 0 1.1 0.4 2.1 0.4 1 1.2 1.8 0.8 0.7 1.8 1.2 1 0.4 2 0.4 1 0 1.9-0.4 0.9-0.3 1.6-0.9 0.8-0.6 1.3-1.5 0.4-0.8 0.6-1.8h11.5v-1.8zm-5.4 4.6q-0.7 0-1.4-0.3-0.6-0.3-1.2-0.8-0.5-0.5-0.8-1.2-0.2-0.6-0.2-1.4c0-2 1.6-3.6 3.6-3.6 2 0 3.7 1.6 3.7 3.6q0 0.8-0.3 1.4-0.3 0.7-0.8 1.2-0.5 0.5-1.2 0.8-0.7 0.3-1.4 0.3z"/><path fill-rule="evenodd" fill="#1c3c49" d="m143 72.2c-1.3 0-2.4-1.1-2.4-2.5 0-1.3 1.1-2.4 2.4-2.4 1.4 0 2.4 1.1 2.4 2.4 0 1.4-1 2.5-2.4 2.5z"/><path fill="#1c3c49" d="m143 64.3q-0.9 0-1.8 0.3-0.9 0.4-1.7 1-0.7 0.6-1.2 1.5-0.5 0.8-0.6 1.8h-11.5v1.7h11.5c0.2 1.4 0.9 2.6 2 3.4 1.1 0.9 2.4 1.3 3.8 1.2 1.3-0.1 2.6-0.8 3.5-1.8 1-1 1.5-2.3 1.5-3.7q0-1-0.5-2-0.4-1-1.1-1.8-0.8-0.8-1.8-1.2-1-0.4-2.1-0.4zm0 9.1q-0.7 0-1.4-0.3-0.6-0.3-1.2-0.8-0.5-0.5-0.7-1.2-0.3-0.6-0.3-1.4c0-2 1.6-3.6 3.6-3.6 2 0 3.7 1.6 3.7 3.6q0 0.8-0.3 1.4-0.3 0.7-0.8 1.2-0.5 0.5-1.2 0.8-0.7 0.3-1.4 0.3z"/><path fill="#1c3c49" d="m143 64.3q-0.9 0-1.8 0.3-0.9 0.4-1.7 1-0.7 0.6-1.2 1.5-0.5 0.8-0.6 1.8h-11.5v1.7h11.5c0.2 1.4 0.9 2.6 2 3.4 1.1 0.9 2.4 1.3 3.8 1.2 1.3-0.1 2.6-0.8 3.5-1.8 1-1 1.5-2.3 1.5-3.7q0-1-0.5-2-0.4-1-1.1-1.8-0.8-0.8-1.8-1.2-1-0.4-2.1-0.4zm0 9.1q-0.7 0-1.4-0.3-0.6-0.3-1.2-0.8-0.5-0.5-0.7-1.2-0.3-0.6-0.3-1.4c0-2 1.6-3.6 3.6-3.6 2 0 3.7 1.6 3.7 3.6q0 0.8-0.3 1.4-0.3 0.7-0.8 1.2-0.5 0.5-1.2 0.8-0.7 0.3-1.4 0.3zm-69.5-23.3h1.4v11.5h-1.4zm0.7 0v11.5m-2.5 21.9h1.3v5.7h-1.3zm0.7 0v5.7m2.9-5.7h1.4v5.7h-1.4zm0.7 0v5.7m12.1-22.1h5.7v1.4h-5.7zm5.7 0.7h-5.7m0 2.9h5.7v1.4h-5.7zm5.7 0.6h-5.7m-27.8-3.6h-5.7m0-0.7h5.7v1.4h-5.7zm5.7 4.3h-5.7m0-0.7h5.7v1.3h-5.7zm17.1-20.7h1.3v5.7h-1.3zm0.7 0v5.7m2.9-5.7h1.4v5.7h-1.4zm0.7 0v5.7m-1.8 33.4v-11.5m-0.7 0h1.4v11.5h-1.4zm8.8-8.8h11.5v1.4h-11.5zm11.5 0.6h-11.5m-27.6-0.6h11.4v1.3h-11.4zm0 0.7h11.4m24.7-10.4l0.7 1.2-9.9 5.7-0.7-1.1zm0.3 0.5l-9.9 5.8m-14.3 7.5l0.6 1.2-9.9 5.7-0.7-1.2zm-9.6 6.3l10-5.7m-2.2-21.3l5.7 9.9-1.1 0.7-5.8-9.9zm-0.6 0.3l5.8 9.9m8.7 13.7l5.7 9.9-1.2 0.7-5.7-9.9zm5.1 10.2l-5.7-9.9m-20.7-17.4l10 5.8-0.7 1.1-9.9-5.7zm-0.4 0.6l10 5.7m14.3 7.5l10 5.8-0.7 1.1-9.9-5.7zm9.5 6.3l-9.9-5.7m2.2-21.4l1.2 0.7-5.8 9.9-1.1-0.6zm0.5 0.3l-5.7 9.9m-8.7 13.7l1.2 0.7-5.7 9.9-1.2-0.6zm-5.2 10.2l5.8-9.9m5.2-44.4v3.6q-0.2 0-0.3 0-0.2 0-0.3 0-0.1 0-0.3 0-0.1 0-0.3 0-0.5 0-1.1 0v-3.6q0.3 0 0.6 0 0.3 0 0.6 0 0.2 0 0.5 0 0.3 0 0.6 0zm0-16.9v5.7q-0.6 0-1.2 0-0.5 0-1.1 0v-5.7q0.3 0 0.6 0 0.3 0 0.6 0 0.2 0 0.5 0 0.3 0 0.6 0zm-1.1 88.1q0.5 0 1.1-0.1v8.1q-0.3 0-0.6 0-0.3 0-0.5 0-0.3 0-0.6 0-0.3 0-0.6 0v-8.1q0.6 0.1 1.2 0.1zm1.1 16.9v18.2q-0.6 0.1-1.2 0.2-0.5-0.1-1.1-0.2v-18.2q0.3 0 0.6 0 0.3 0 0.6 0 0.2 0 0.5 0 0.3 0 0.6 0z"/><path fill="#1c3c49" d="m68.2 19.3q0 0 0 0 0 0 0 0 0 0-0.1 0 0 0 0 0 0.1 0 0.1 0zm0 9v8q-1.1 0.2-2.2 0.4v-8q0.3 0 0.5-0.1 0.3 0 0.6-0.1 0.3 0 0.6-0.1 0.2 0 0.5-0.1zm-2.2 74.5q1.1 0.2 2.2 0.3v8q-0.3 0-0.5-0.1-0.3 0-0.6-0.1-0.3 0-0.6-0.1-0.2 0-0.5-0.1zm2.2 17.4v16.9q-0.3-0.2-0.6-0.3-0.2-0.1-0.5-0.2-0.3-0.1-0.6-0.2-0.2-0.1-0.5-0.3v-16.2q1.1 0.2 2.2 0.3z"/><path fill="#1c3c49" d="m61.1 30v7.9q-1.2 0.3-2.3 0.7v-7.8q0.3-0.1 0.6-0.2 0.3-0.1 0.5-0.2 0.3-0.1 0.6-0.2 0.3-0.1 0.6-0.2zm0 71.6v7.9q-0.3-0.1-0.6-0.2-0.3-0.1-0.6-0.2-0.2-0.1-0.5-0.2-0.3-0.1-0.6-0.2v-7.8q1.1 0.4 2.3 0.7zm0 17.2v14.8q-0.3-0.1-0.6-0.3-0.3-0.1-0.6-0.3-0.2-0.1-0.5-0.3-0.3-0.1-0.6-0.3v-14.3q1.1 0.4 2.3 0.7z"/><path fill="#1c3c49" d="m53.9 33.1v7.4q-1.1 0.5-2.2 1.1v-7.2q0.3-0.2 0.5-0.4 0.3-0.1 0.6-0.3 0.3-0.2 0.6-0.3 0.2-0.2 0.5-0.3zm0 65.8v7.5q-0.3-0.2-0.5-0.3-0.3-0.2-0.6-0.3-0.3-0.2-0.6-0.4-0.2-0.1-0.5-0.3v-7.2q1.1 0.5 2.2 1zm0 17.4v13q-0.3-0.2-0.5-0.4-0.3-0.2-0.6-0.4-0.3-0.2-0.6-0.4-0.2-0.2-0.5-0.4v-12.4q1.1 0.5 2.2 1z"/><path fill="#1c3c49" d="m46.8 38v6.4q-0.3 0.2-0.6 0.4-0.3 0.1-0.5 0.3-0.3 0.2-0.6 0.4-0.3 0.2-0.6 0.4v-5.9q0.3-0.3 0.6-0.5 0.3-0.3 0.5-0.6 0.3-0.2 0.6-0.5 0.3-0.2 0.6-0.4zm0 57v6.5q-0.3-0.2-0.6-0.5-0.3-0.2-0.6-0.5-0.2-0.2-0.5-0.5-0.3-0.3-0.6-0.5v-5.9q1.2 0.7 2.3 1.4zm0 17.5v11.4q-0.3-0.3-0.6-0.5-0.3-0.3-0.6-0.5-0.2-0.3-0.5-0.5-0.3-0.3-0.6-0.5v-10.8q0.3 0.2 0.6 0.3 0.3 0.2 0.5 0.4 0.3 0.2 0.6 0.4 0.3 0.2 0.6 0.3z"/><path fill="#1c3c49" d="m39.6 45.7v3.9q-0.3 0.2-0.5 0.4-0.3 0.3-0.6 0.5-0.3 0.3-0.6 0.5-0.2 0.2-0.5 0.5v-2.3q0.3-0.4 0.5-0.9 0.3-0.4 0.6-0.9 0.2-0.4 0.5-0.8 0.3-0.5 0.6-0.9zm0 44.2v3.8q-0.3-0.4-0.6-0.8-0.3-0.4-0.5-0.9-0.3-0.4-0.6-0.9-0.2-0.4-0.5-0.9v-2.2q0.3 0.2 0.5 0.4 0.3 0.3 0.6 0.5 0.3 0.2 0.6 0.5 0.2 0.2 0.5 0.5zm0 17.2v9.9q-0.3-0.4-0.5-0.7-0.3-0.3-0.6-0.6-0.3-0.3-0.6-0.7-0.2-0.3-0.5-0.6v-9.5q0.3 0.3 0.5 0.6 0.3 0.3 0.6 0.5 0.3 0.3 0.6 0.6 0.2 0.2 0.5 0.5z"/><path fill="#1c3c49" d="m32.5 33.1v7.3q-0.3 0.4-0.6 0.8-0.3 0.4-0.6 0.8-0.2 0.5-0.5 0.9-0.3 0.4-0.6 0.9v-10.4q0.3 0 0.6 0 0.3-0.1 0.6-0.1 0.2-0.1 0.5-0.1 0.3 0 0.6-0.1zm0 66v8.6q-0.3-0.4-0.6-0.9-0.3-0.4-0.6-0.9-0.2-0.5-0.5-0.9-0.3-0.5-0.6-0.9v-8.4q0.3 0.4 0.6 0.9 0.3 0.4 0.5 0.8 0.3 0.4 0.6 0.9 0.3 0.4 0.6 0.8z"/><path fill="#1c3c49" d="m25.3 33.9v20.7q-0.4 1.5-0.8 3-0.4 1.5-0.7 3-0.2 1.5-0.4 3.1-0.2 1.5-0.3 3.1v-32.8q0.3 0 0.6 0 0.2 0 0.5 0 0.3 0 0.6-0.1 0.3 0 0.5 0zm0 51v8.6q-0.3-0.9-0.6-1.8-0.3-0.9-0.6-1.8-0.3-0.9-0.5-1.8-0.3-0.9-0.5-1.8v-13.6q0.1 1.5 0.3 3.1 0.2 1.5 0.4 3 0.3 1.6 0.7 3.1 0.4 1.5 0.8 3z"/><path fill="#1c3c49" d="m123.1 33.9v20.7q0.5 1.5 0.9 3 0.4 1.5 0.6 3 0.3 1.5 0.5 3.1 0.2 1.5 0.3 3.1v-32.8q-0.3 0-0.6 0-0.3 0-0.5 0-0.3 0-0.6-0.1-0.3 0-0.6 0zm0 51v8.6q0.4-0.9 0.7-1.8 0.3-0.9 0.6-1.8 0.2-0.9 0.5-1.8 0.2-0.9 0.5-1.8v-13.6q-0.1 1.5-0.3 3.1-0.2 1.5-0.5 3-0.2 1.6-0.6 3.1-0.4 1.5-0.9 3z"/><path fill="#1c3c49" d="m82.5 28.7v8q-0.3 0-0.6-0.1-0.2 0-0.5-0.1-0.3 0-0.6-0.1-0.2 0-0.5 0v-8.1q1.1 0.2 2.2 0.4zm0 74.1v7.9q-1.1 0.3-2.2 0.4v-8q0.3 0 0.5-0.1 0.3 0 0.6-0.1 0.3 0 0.5 0 0.3-0.1 0.6-0.1zm0 17v16.2q-0.3 0.2-0.6 0.3-0.2 0.1-0.5 0.2-0.3 0.1-0.6 0.2-0.2 0.2-0.5 0.3v-16.9q1.1-0.1 2.2-0.3z"/><path fill="#1c3c49" d="m89.6 30.8v7.8q-0.2-0.1-0.5-0.2-0.3-0.1-0.6-0.2-0.2-0.1-0.5-0.2-0.3-0.1-0.6-0.1v-7.9q0.3 0.1 0.6 0.2 0.3 0.1 0.5 0.2 0.3 0.1 0.6 0.2 0.3 0.1 0.5 0.2zm0 70.1v7.8q-1.1 0.4-2.2 0.8v-7.9q0.3-0.1 0.6-0.2 0.3-0.1 0.5-0.1 0.3-0.1 0.6-0.2 0.3-0.1 0.5-0.2zm0 17.2v14.3q-1.1 0.6-2.2 1.2v-14.8q1.1-0.3 2.2-0.7z"/><path fill="#1c3c49" d="m96.8 34.4v7.2q-0.3-0.1-0.6-0.3-0.2-0.1-0.5-0.2-0.3-0.2-0.6-0.3-0.3-0.1-0.5-0.3v-7.4q1.1 0.6 2.2 1.3zm0 63.4v7.3q-1.1 0.7-2.2 1.3v-7.5q1.1-0.5 2.2-1.1zm0 17.5v12.4q-0.3 0.2-0.6 0.4-0.2 0.2-0.5 0.4-0.3 0.2-0.6 0.4-0.3 0.2-0.5 0.4v-13q1.1-0.5 2.2-1z"/><path fill="#1c3c49" d="m103.9 40v5.9q-0.2-0.2-0.5-0.4-0.3-0.2-0.6-0.3-0.2-0.2-0.5-0.4-0.3-0.2-0.6-0.4v-6.4q0.3 0.2 0.6 0.5 0.3 0.2 0.5 0.5 0.3 0.2 0.6 0.5 0.3 0.2 0.5 0.5zm0 53.6v5.9q-1 1-2.2 2v-6.5q0.3-0.1 0.6-0.3 0.3-0.2 0.5-0.4 0.3-0.2 0.6-0.4 0.3-0.1 0.5-0.3zm0 17.4v10.9q-0.2 0.2-0.5 0.5-0.3 0.2-0.6 0.5-0.2 0.2-0.5 0.5-0.3 0.2-0.6 0.5v-11.4q1.1-0.7 2.2-1.5z"/><path fill="#1c3c49" d="m111.1 49.3v2.2q-0.3-0.2-0.6-0.5-0.2-0.2-0.5-0.4-0.3-0.3-0.6-0.5-0.3-0.3-0.5-0.5v-3.9q0.3 0.5 0.5 0.9 0.3 0.4 0.6 0.9 0.3 0.4 0.6 0.9 0.2 0.4 0.5 0.9zm0 38.6v2.3q-0.3 0.5-0.5 0.9-0.3 0.4-0.6 0.9-0.3 0.4-0.6 0.9-0.2 0.4-0.5 0.8v-3.8q0.2-0.3 0.5-0.5 0.3-0.2 0.6-0.5 0.3-0.2 0.5-0.5 0.3-0.2 0.6-0.5zm0 17v9.5q-0.3 0.3-0.6 0.6-0.2 0.3-0.5 0.7-0.3 0.3-0.6 0.6-0.3 0.3-0.5 0.6v-9.8q0.2-0.3 0.5-0.5 0.3-0.3 0.6-0.6 0.3-0.2 0.5-0.5 0.3-0.3 0.6-0.6z"/><path fill="#1c3c49" d="m118.2 95.7v8.3q-0.2 0.5-0.5 1-0.3 0.4-0.6 0.9-0.2 0.4-0.5 0.9-0.3 0.4-0.6 0.9v-8.6q0.3-0.4 0.6-0.9 0.3-0.4 0.5-0.8 0.3-0.4 0.6-0.9 0.3-0.4 0.5-0.8zm0-62.6v10.7q-0.2-0.5-0.5-0.9-0.3-0.4-0.6-0.8-0.2-0.5-0.5-0.9-0.3-0.4-0.6-0.8v-7.7q1.1 0.2 2.2 0.4z"/><path fill="#1c3c49" d="m132 28.1c-20.7 0-42.3-7.6-56.5-19.8l-1.5-1.3-1.4 1.3c-14.9 12.7-33.7 19.8-53.1 19.8-0.7 0-3.1 0-3.1 0h-2.2v38.4h4.4v-34c0.4 0 0.7 0 0.9 0 19.9 0 39.1-6.9 54.5-19.6 14.5 11.7 35.5 19.1 55.8 19.6v34h4.5v-38.4zm-24.3 93.9c-11.3 11.2-24.9 18-33.5 19.9-8.7-1.9-22.3-8.7-33.5-19.9-9.6-9.4-20.8-25.5-22-49.3h-4.5c2.3 46.7 41.4 70.1 59.5 73.6l0.5 0.1 0.4-0.1c18.1-3.5 57.3-26.9 59.5-73.6h-4.5c-1.2 23.8-12.4 39.9-21.9 49.3z"/><path fill="#1c3c49" d="m74.4 101.3c-17.4 0-34.4-10.5-49.2-30.3l-1-1.3 1-1.3c14.7-19.8 31.7-30.2 49.2-30.2 17.4 0 34.4 10.4 49.1 30.2l1 1.3-1 1.4c-14.7 19.7-31.7 30.2-49.1 30.2zm-44.6-31.6c13.6 17.7 29 27.1 44.6 27.1 15.6 0 30.9-9.3 44.5-27.1-13.6-17.7-28.9-27-44.5-27-15.6 0-31 9.3-44.6 27z"/><path fill="#1c3c49" d="m74.4 26.5c20.1 0 37.2 13.3 42.7 31.5q0.7 0.8 1.5 1.7 0.8 0.8 1.5 1.7 0.8 0.8 1.5 1.7 0.7 0.9 1.4 1.8c-2.8-24.1-23.5-42.9-48.6-42.9-25.1 0-45.8 18.8-48.7 42.9q0.8-0.9 1.5-1.8 0.7-0.9 1.5-1.8 0.7-0.8 1.5-1.7 0.7-0.8 1.5-1.7c5.5-18.1 22.6-31.4 42.7-31.4zm0 88.1c-20.2 0-37.2-13.3-42.7-31.5q-0.8-0.8-1.5-1.7-0.8-0.8-1.5-1.7-0.8-0.9-1.5-1.7-0.8-0.9-1.5-1.8c2.9 24.1 23.6 42.9 48.7 42.9 25.1 0 45.8-18.8 48.6-42.9q-0.7 0.9-1.4 1.8-0.7 0.9-1.5 1.7-0.7 0.9-1.5 1.8-0.8 0.8-1.6 1.6c-5.4 18.2-22.5 31.5-42.6 31.5z"/><path fill="#1c3c49" d="m111.1 31.8v2.7q-0.3-0.3-0.6-0.5-0.2-0.3-0.5-0.6-0.3-0.2-0.6-0.5-0.3-0.3-0.5-0.5v-1.1q1.1 0.2 2.2 0.5zm-73.8 0v2.7q0.3-0.3 0.6-0.5 0.2-0.3 0.5-0.6 0.3-0.2 0.6-0.5 0.3-0.3 0.5-0.5v-1.1q-1.1 0.2-2.2 0.5z"/><path fill="#1c3c49" d="m74.2 95.4c-14.1 0-25.6-11.5-25.6-25.7 0-14.1 11.5-25.6 25.6-25.6 14.2 0 25.7 11.5 25.7 25.6 0 14.2-11.5 25.7-25.7 25.7zm0-46.9c-11.7 0-21.2 9.5-21.2 21.2 0 11.7 9.5 21.3 21.2 21.3 11.7 0 21.3-9.6 21.3-21.3 0-11.7-9.6-21.2-21.3-21.2z"/></svg>