<svg xmlns="http://www.w3.org/2000/svg" viewBox="0 0 150 150" fill="currentColor"><path d="M74.241 74.086a5.365 5.365 0 01-5.359-5.359 5.365 5.365 0 015.359-5.359 5.365 5.365 0 015.359 5.359 5.365 5.365 0 01-5.359 5.359zm0-7.145c-.985 0-1.786.801-1.786 1.786s.801 1.786 1.786 1.786 1.786-.801 1.786-1.786a1.787 1.787 0 00-1.786-1.786z"/><circle cx="41.147" cy="68.727" r="2.419"/><circle cx="107.022" cy="68.727" r="2.419"/><circle cx="74.224" cy="107.878" r="3.759"/><circle cx="74.196" cy="30.39" r="3.759"/><circle cx="74.224" cy="123.063" r="3.759"/><circle cx="5.436" cy="68.739" r="2.419"/><path d="M10.795 67.847a5.439 5.439 0 00-5.359-4.542A5.442 5.442 0 000 68.74a5.441 5.441 0 005.435 5.431 5.44 5.44 0 005.359-4.538h11.482v-1.786H10.795zm-5.36 4.538a3.652 3.652 0 01-3.649-3.644c0-2.014 1.639-3.649 3.649-3.649s3.649 1.635 3.649 3.649a3.652 3.652 0 01-3.649 3.644z"/><circle cx="143.025" cy="68.743" r="2.419"/><path d="M143.024 63.31a5.436 5.436 0 00-5.355 4.542h-11.487v1.786h11.487a5.431 5.431 0 0010.79-.893 5.441 5.441 0 00-5.435-5.435zm0 9.079a3.648 3.648 0 01-3.644-3.644c0-2.014 1.635-3.649 3.644-3.649s3.649 1.635 3.649 3.649a3.652 3.652 0 01-3.649 3.644z"/><path d="M143.024 63.31a5.436 5.436 0 00-5.355 4.542h-11.487v1.786h11.487a5.431 5.431 0 0010.79-.893 5.441 5.441 0 00-5.435-5.435zm0 9.079a3.648 3.648 0 01-3.644-3.644c0-2.014 1.635-3.649 3.644-3.649s3.649 1.635 3.649 3.649a3.652 3.652 0 01-3.649 3.644zM74.213 49.148v11.463M73.543 49.148h1.34v11.463h-1.34zM72.371 82.57v5.676M71.701 82.57h1.34v5.676h-1.34zM76 82.57v5.676M75.33 82.57h1.34v5.676h-1.34zM93.785 66.901h-5.676M88.109 66.231h5.676v1.34h-5.676zM93.785 70.53h-5.676M88.109 69.86h5.676v1.34h-5.676zM60.312 66.901h-5.676M54.636 66.231h5.676v1.34h-5.676zM60.312 70.53h-5.676M54.636 69.86h5.676v1.34h-5.676zM72.371 49.148v5.676M71.701 49.148h1.34v5.676h-1.34zM76 49.148v5.676M75.33 49.148h1.34v5.676h-1.34zM74.213 88.269V76.806M73.543 76.806h1.34v11.463h-1.34zM93.791 68.716H82.328M82.328 68.046h11.463v1.34H82.328zM54.67 68.716h11.463M54.67 68.046h11.463v1.34H54.67zM91.165 58.938l-9.928 5.731M90.832 58.36l.67 1.16-9.927 5.733-.67-1.16zM57.285 78.498l9.927-5.732M66.879 72.19l.67 1.16-9.927 5.733-.67-1.16zM64.459 51.782l5.732 9.927M65.042 51.446l5.731 9.927-1.16.67-5.732-9.927zM84.02 85.661l-5.732-9.927M78.872 75.398l5.732 9.927-1.16.67-5.732-9.927zM57.285 58.938l9.927 5.731M57.619 58.355l9.927 5.732-.67 1.16-9.927-5.731zM91.165 78.498l-9.928-5.732M81.57 72.184l9.926 5.731-.67 1.16-9.927-5.73zM83.99 51.782l-5.731 9.927M83.41 51.451l1.16.67-5.733 9.927-1.16-.67zM64.43 85.661l5.732-9.927M69.58 75.403l1.16.67L65.008 86l-1.16-.67zM75.357 31.39v3.582a33.28 33.28 0 00-1.139-.018c-.366 0-.728.004-1.094.013V31.39a45.185 45.185 0 012.233 0zM75.357 14.482v5.695c-.38-.021-.759-.028-1.139-.028-.366 0-.728.007-1.094.021v-5.688a29.052 29.052 0 012.233 0zM74.241 102.5c.371 0 .746-.004 1.117-.018v8.048a46.886 46.886 0 01-2.233 0v-8.048c.37.014.745.018 1.116.018zM75.357 119.462V137.6c-.384.103-.764.197-1.13.281-.357-.08-.728-.174-1.103-.277v-18.141a45.185 45.185 0 002.233-.001z"/><g><path d="M68.211 18.277v.054a.545.545 0 00-.094.009c.032-.022.063-.04.094-.063zM68.211 27.335v8.012c-.746.098-1.492.214-2.233.348v-7.981a37.001 37.001 0 012.233-.379zM65.978 101.754c.741.134 1.487.25 2.233.348v8.017a36.103 36.103 0 01-2.233-.38v-7.985zM68.211 119.123v16.851a58.487 58.487 0 01-2.233-.929v-16.23c.737.12 1.483.223 2.233.308z"/></g><g><path d="M61.066 28.987v7.865c-.746.214-1.492.451-2.233.71v-7.78a37.384 37.384 0 012.233-.795zM61.066 100.593v7.874a40.388 40.388 0 01-2.233-.791v-7.789c.741.255 1.487.492 2.233.706zM61.066 117.774v14.872a62.136 62.136 0 01-2.233-1.246v-14.269c.736.232 1.478.447 2.233.643z"/></g><g><path d="M53.92 32.06v7.458c-.746.339-1.492.697-2.233 1.076v-7.231a39.043 39.043 0 012.233-1.303zM53.92 97.927v7.467a38.476 38.476 0 01-2.233-1.304v-7.24c.741.376 1.487.733 2.233 1.077zM53.92 115.309v13.01a93.926 93.926 0 01-2.233-1.577v-12.456c.732.362 1.478.706 2.233 1.023z"/></g><g><path d="M46.774 36.95v6.445a66.19 66.19 0 00-2.233 1.478v-5.891a40.453 40.453 0 012.233-2.032zM46.774 94.041v6.463a40.059 40.059 0 01-2.233-2.032v-5.904c.741.508 1.487 1 2.233 1.473zM46.774 111.548v11.322a76.757 76.757 0 01-2.233-1.974v-10.839a46.843 46.843 0 002.233 1.491z"/></g><g><path d="M39.628 44.717v3.863a71.58 71.58 0 00-2.233 1.903V48.21a42.634 42.634 0 012.233-3.493zM39.628 88.852v3.886a42.464 42.464 0 01-2.233-3.493v-2.291a86.879 86.879 0 002.233 1.898zM39.628 106.109v9.848a65.201 65.201 0 01-2.233-2.577v-9.433a46.489 46.489 0 002.233 2.162z"/></g><g><path d="M32.482 32.122v7.24a49.165 49.165 0 00-2.233 3.39V32.426a72.152 72.152 0 002.233-.304zM32.482 98.092v8.624a70.98 70.98 0 01-2.233-3.653v-8.361a49.165 49.165 0 002.233 3.39z"/></g><g><path d="M25.336 32.9v20.7a49.935 49.935 0 00-2.233 12.179V33.02a64.076 64.076 0 002.233-.12zM25.336 83.854v8.664a69.493 69.493 0 01-2.233-7.222V71.675a50.03 50.03 0 002.233 12.179z"/></g><g><path d="M123.141 32.9v20.7a49.935 49.935 0 012.233 12.179V33.02a64.342 64.342 0 01-2.233-.12zM123.141 83.854v8.664a69.493 69.493 0 002.233-7.222V71.675a49.935 49.935 0 01-2.233 12.179z"/></g><g><path d="M82.503 27.719v7.985a46.888 46.888 0 00-2.233-.353v-8.012c.75.103 1.496.228 2.233.38zM82.503 101.754v7.981c-.737.152-1.483.277-2.233.38v-8.012a48.17 48.17 0 002.233-.349zM82.503 118.81v16.226a51.54 51.54 0 01-2.233.933v-16.846c.75-.085 1.496-.188 2.233-.313z"/></g><g><path d="M89.649 29.787v7.789a37.917 37.917 0 00-2.233-.706v-7.874a37.35 37.35 0 012.233.791zM89.649 99.883v7.784c-.732.286-1.478.549-2.233.79v-7.86a45.159 45.159 0 002.233-.714zM89.649 117.122v14.269c-.75.438-1.496.853-2.233 1.246V117.77c.75-.197 1.496-.411 2.233-.648z"/></g><g><path d="M96.795 33.377v7.24a53.74 53.74 0 00-2.233-1.081v-7.463c.759.411 1.505.844 2.233 1.304zM96.795 96.846v7.231c-.728.46-1.474.893-2.233 1.304v-7.458c.746-.34 1.491-.697 2.233-1.077zM96.795 114.277v12.452a76.004 76.004 0 01-2.233 1.572v-12.996c.755-.322 1.5-.666 2.233-1.028z"/></g><g><path d="M103.941 39v5.9a59.205 59.205 0 00-2.233-1.474v-6.458A42.266 42.266 0 01103.941 39zM103.941 92.563v5.891c-.719.701-1.46 1.38-2.233 2.032v-6.445a68.276 68.276 0 002.233-1.478zM103.941 110.043v10.835a69.964 69.964 0 01-2.233 1.974v-11.317c.759-.478 1.5-.974 2.233-1.492z"/></g><g><path d="M111.086 48.25v2.269a76.531 76.531 0 00-2.233-1.903v-3.868a41.606 41.606 0 012.233 3.502zM111.086 86.949v2.255a41.937 41.937 0 01-2.233 3.501v-3.85a76.673 76.673 0 002.233-1.906zM111.086 103.929v9.428a74.9 74.9 0 01-2.233 2.581v-9.848a49.96 49.96 0 002.233-2.161z"/></g><g><path d="M118.232 94.671v8.356a71.864 71.864 0 01-2.233 3.658V98.07a50.479 50.479 0 002.233-3.399zM118.232 32.078v10.705a50.611 50.611 0 00-2.233-3.399v-7.659c.742.13 1.487.246 2.233.353z"/></g><g><path d="M132.049 27.071c-20.71 0-42.384-7.592-56.559-19.816L74.029 6l-1.456 1.255c-14.828 12.787-33.661 19.83-53.031 19.83-.715 0-3.113-.013-3.113-.013l-2.246-.009v38.422h4.466V31.546c.371 0 .697.004.893.004 19.812 0 39.088-6.976 54.496-19.687C88.459 23.605 109.463 31 129.816 31.51v33.978h4.466V27.071h-2.233zm-24.314 93.959c-11.268 11.206-24.841 17.985-33.505 19.821-8.655-1.84-22.232-8.615-33.501-19.821-9.517-9.473-20.768-25.546-21.973-49.293h-4.471c2.242 46.618 41.379 70.016 59.516 73.584l.429.085.433-.085c18.137-3.568 57.269-26.962 59.516-73.58h-4.471c-1.205 23.747-12.451 39.816-21.973 49.289z"/></g><g><path d="M74.389 100.267c-17.437 0-34.438-10.45-49.163-30.219l-.994-1.334.993-1.334c14.709-19.752 31.702-30.193 49.141-30.193 17.442 0 34.443 10.45 49.164 30.22l.993 1.334-.994 1.334c-14.713 19.751-31.705 30.192-49.14 30.192zM29.816 68.713C43.42 86.443 58.805 95.8 74.389 95.8c15.581 0 30.959-9.35 44.551-27.061-13.6-17.73-28.985-27.087-44.573-27.087-15.586.001-30.964 9.35-44.551 27.061z"/></g><g><path d="M74.388 25.49c20.138 0 37.19 13.3 42.665 31.486a106.701 106.701 0 015.985 6.923c-2.827-24.104-23.568-42.875-48.65-42.875-25.073 0-45.805 18.758-48.645 42.848a106.922 106.922 0 015.989-6.931C37.221 38.773 54.264 25.49 74.388 25.49zm0 88.099c-20.138 0-37.194-13.296-42.665-31.486a109.706 109.706 0 01-5.985-6.927c2.827 24.108 23.568 42.879 48.65 42.879 25.068 0 45.805-18.753 48.645-42.844a107.272 107.272 0 01-5.989 6.923c-5.484 18.173-22.531 31.455-42.656 31.455z"/></g><path d="M111.086 30.783v2.742a51.104 51.104 0 00-2.233-2.162v-1.099c.742.184 1.488.358 2.233.519zM37.306 30.783v2.742a51.104 51.104 0 012.233-2.162v-1.099c-.742.184-1.487.358-2.233.519z"/><g><path d="M74.239 94.422c-14.16 0-25.68-11.52-25.68-25.68s11.52-25.68 25.68-25.68 25.68 11.52 25.68 25.68-11.52 25.68-25.68 25.68zm0-46.895c-11.697 0-21.214 9.517-21.214 21.214s9.517 21.214 21.214 21.214 21.214-9.517 21.214-21.214-9.517-21.214-21.214-21.214z"/></g></svg>