<?xml version="1.0" encoding="UTF-8" standalone="no"?>
<svg
   viewBox="0 0 32 32"
   width="512"
   height="512"
   version="1.1"
   id="svg1"
   sodipodi:docname="shop.svg"
   inkscape:version="1.4 (86a8ad7, 2024-10-11)"
   xmlns:inkscape="http://www.inkscape.org/namespaces/inkscape"
   xmlns:sodipodi="http://sodipodi.sourceforge.net/DTD/sodipodi-0.dtd"
   xmlns="http://www.w3.org/2000/svg"
   xmlns:svg="http://www.w3.org/2000/svg">
  <defs
     id="defs1" />
  <sodipodi:namedview
     id="namedview1"
     pagecolor="#ffffff"
     bordercolor="#000000"
     borderopacity="0.25"
     inkscape:showpageshadow="2"
     inkscape:pageopacity="0.0"
     inkscape:pagecheckerboard="0"
     inkscape:deskcolor="#d1d1d1"
     showgrid="false"
     inkscape:zoom="1.097949"
     inkscape:cx="242.2699"
     inkscape:cy="201.73979"
     inkscape:window-width="1920"
     inkscape:window-height="1013"
     inkscape:window-x="-9"
     inkscape:window-y="29"
     inkscape:window-maximized="1"
     inkscape:current-layer="g5"
     showguides="true" />
  <g
     id="g5"
     transform="matrix(1.0057975,0,0,1.0057975,1.2021023,1.0998507)">
    <path
       fill="#cfd8dc"
       d="M 1.4382626,9.2620572 H 28.071155 V 25.408314 H 1.4382626 Z"
       id="path1-5"
       style="stroke-width:0.77175" />
    <path
       fill="#b0bec5"
       d="M 1.4382505,25.408313 H 28.071143 v 2.803462 H 1.4382505 Z"
       id="path2-2"
       style="stroke-width:0.700866" />
    <path
       fill="#455a64"
       d="m 16.80071,15.596197 h 8.410386 V 28.211776 H 16.80071 Z"
       id="path3-7"
       style="stroke-width:0.700866" />
    <path
       fill="#e3f2fd"
       d="m 4.2417242,15.454707 h 9.8121168 v 7.709519 H 4.2417242 Z"
       id="path4-6"
       style="stroke-width:0.700866" />
    <path
       fill="#1e88e5"
       d="m 4.9425899,16.15557 h 8.4103881 v 6.307791 H 4.9425899 Z"
       id="path5-1"
       style="stroke-width:0.700866" />
    <path
       fill="#90a4ae"
       d="m 23.515528,19.424608 c -0.210259,0 -0.350433,0.140174 -0.350433,0.350433 v 1.401732 c 0,0.210259 0.140174,0.350433 0.350433,0.350433 0.21026,0 0.350434,-0.140174 0.350434,-0.350433 v -1.401732 c 0,-0.210259 -0.140174,-0.350433 -0.350434,-0.350433 z"
       id="path6-4"
       style="stroke-width:0.700866" />
    <path
       fill="#558b2f"
       d="m 14.754708,7.1594607 a 2.1025971,2.1025971 0 1 0 0,4.2051943 2.1025971,2.1025971 0 1 0 0,-4.2051943 z m 8.410387,0 a 2.1025971,2.1025971 0 1 0 0,4.2051943 2.1025971,2.1025971 0 1 0 0,-4.2051943 z m -16.8207735,0 a 2.1025971,2.1025971 0 1 0 0,4.2051943 2.1025971,2.1025971 0 1 0 0,-4.2051943 z"
       id="path7-2"
       style="stroke-width:0.700866" />
    <path
       fill="#7cb342"
       d="M 25.968557,0.15080528 H 3.5408583 c -0.7709509,0 -1.40173,0.63077908 -1.40173,1.40173112 V 3.6551331 H 27.37029 V 1.5525364 c 0,-0.77095204 -0.63078,-1.40173112 -1.401733,-1.40173112 z M 12.652112,3.6551331 h 4.205194 v 5.6069241 h -4.205194 z m 11.21385,0 h -3.504329 l 0.700866,5.6069241 h 4.205193 z m -18.2225063,0 H 9.147783 L 8.4469173,9.2620572 H 4.2417242 Z"
       id="path8-3"
       style="stroke-width:0.700866" />
    <g
       id="g9"
       transform="matrix(0.70086558,0,0,0.70086558,-2.0660663,-4.0543885)">
      <path
         fill="#ffa000"
         d="m 30,16 a 3,3 0 1 0 0,6 3,3 0 1 0 0,-6 z m 15,3 c 0,1.7 -1.3,3 -3,3 -1.7,0 -3,-1.3 -3,-3 0,-1.7 1.3,-3 3,-3 z M 18,16 a 3,3 0 1 0 0,6 3,3 0 1 0 0,-6 z M 3,19 c 0,1.7 1.3,3 3,3 1.7,0 3,-1.3 3,-3 0,-1.7 -1.3,-3 -3,-3 z"
         id="path9-2" />
    </g>
    <g
       id="g10"
       transform="matrix(0.70086558,0,0,0.70086558,-2.0660663,-4.0543885)">
      <path
         fill="#ffc107"
         d="m 32,11 h -5 v 8 h 6 z m 10,0 h -5 l 2,8 h 6 z m -26,0 h 5 v 8 H 15 Z M 6,11 h 5 L 9,19 H 3 Z"
         id="path10-2" />
    </g>
  </g>
  <g
     id="g4"
     transform="translate(-16.892292,7.507106)">
    <path
       fill="#cfd8dc"
       d="m 43.562013,18.410105 h -1.860017 -1.860018 c 0,0 -4.095389,0.871976 -4.092038,4.836045 h 11.904112 c 0.06958,-3.871068 -4.092039,-4.836045 -4.092039,-4.836045 z"
       id="path1"
       style="stroke-width:0.372003" />
    <path
       fill="#ff9800"
       d="m 41.701996,18.782108 -1.860018,-0.372003 v -2.232021 h 3.720035 v 2.232021 z"
       id="path2-1"
       style="stroke-width:0.372003" />
    <path
       fill="#ffa726"
       d="m 45.794034,13.946063 c 0,0.411067 -0.332958,0.744007 -0.744007,0.744007 -0.410692,0 -0.744007,-0.33294 -0.744007,-0.744007 0,-0.411067 0.333315,-0.744007 0.744007,-0.744007 0.411049,0 0.744007,0.33294 0.744007,0.744007 m -6.696063,0 c 0,-0.411067 -0.332958,-0.744007 -0.744007,-0.744007 -0.411049,0 -0.744007,0.33294 -0.744007,0.744007 0,0.411067 0.332958,0.744007 0.744007,0.744007 0.411049,0 0.744007,-0.33294 0.744007,-0.744007"
       id="path3-1"
       style="stroke-width:0.372003" />
    <path
       fill="#ffb74d"
       d="m 45.050027,11.714042 c 0,-2.8402467 -6.696063,-1.8492294 -6.696063,0 v 2.604024 c 0,1.84923 1.498799,3.348032 3.348032,3.348032 1.849595,0 3.348031,-1.498802 3.348031,-3.348032 z"
       id="path4"
       style="stroke-width:0.372003" />
    <path
       fill="#424242"
       d="m 41.701996,8.3660105 c -2.259925,0 -3.720035,1.8324895 -3.720035,4.0920385 v 0.8504 l 0.744007,0.637614 v -1.860018 l 4.464042,-0.279002 1.488014,0.279002 v 1.860018 l 0.744007,-0.64803 v -0.839984 c 0,-1.497314 -0.38617,-2.9819801 -2.232021,-3.3480315 l -0.372004,-0.744007 z"
       id="path5"
       style="stroke-width:0.372003" />
    <path
       fill="#784719"
       d="m 42.818006,13.946063 c 0,-0.204971 0.166658,-0.372004 0.372004,-0.372004 0.205346,0 0.372003,0.167033 0.372003,0.372004 0,0.204971 -0.166657,0.372003 -0.372003,0.372003 -0.205346,0 -0.372004,-0.167032 -0.372004,-0.372003 m -2.976028,0 c 0,0.204971 0.166658,0.372003 0.372004,0.372003 0.205346,0 0.372003,-0.167032 0.372003,-0.372003 0,-0.204971 -0.166657,-0.372004 -0.372003,-0.372004 -0.205346,0 -0.372004,0.167033 -0.372004,0.372004"
       id="path6"
       style="stroke-width:0.372003" />
    <path
       fill="#1a237e"
       d="m 46.488187,9.9280532 c -0.281604,0.7224308 -1.066156,1.4139848 -1.066156,1.4139848 0,0 -0.882768,-0.927032 -3.719666,-0.927032 -2.837643,0 -3.720404,0.927032 -3.720404,0.927032 0,0 -0.78419,-0.691554 -1.065424,-1.4139848 C 36.868325,9.804548 36.769938,9.5828339 37.122597,9.5210814 39.498616,9.1029494 40.820716,7.25 41.702365,7.25 c 1.3221,0 2.203373,1.8529494 4.579363,2.2714534 0.352659,0.061383 0.25445,0.2830976 0.206477,0.4066028 z"
       id="path7"
       style="stroke-width:0.372003" />
    <path
       fill="#3f51b5"
       d="m 47.282048,19.898119 -3.348031,-1.395013 v 1.488014 l 3.348031,1.395013 z m -11.160105,1.488014 3.348032,-1.395013 v -1.488014 l -3.348032,1.395013 z"
       id="path8"
       style="stroke-width:0.372003" />
    <polygon
       fill="#3f51b5"
       points="23.999,33 25.999,35 24.999,36 25.999,45 21.999,45 22.999,36 21.999,35 "
       id="polygon8"
       transform="matrix(0.3720035,0,0,0.3720035,32.774281,6.505993)" />
    <path
       fill="#3f51b5"
       d="m 37.981961,11.342038 v 0.744007 h 7.44007 v -0.744007 c 0,0 -0.882768,-0.927032 -3.719666,-0.927032 -2.837643,0 -3.720404,0.927032 -3.720404,0.927032 z"
       id="path9"
       style="stroke-width:0.372003" />
    <path
       fill="#263238"
       d="m 45.422031,12.085301 c 0,0 -0.654726,1.116755 -3.719666,1.116755 -3.065309,0 -3.720404,-1.116755 -3.720404,-1.116755 0,0 1.059835,-0.743263 3.720404,-0.743263 2.660194,0 3.719666,0.743263 3.719666,0.743263 z"
       id="path10"
       style="stroke-width:0.372003" />
    <path
       fill="#ffeb3b"
       d="m 42.446003,8.7235059 c 0,0 -0.332958,-0.3574924 -0.744007,-0.3574924 -0.410692,0 -0.744007,0.3574924 -0.744007,0.3574924 0,0.4110668 0.333672,1.1305186 0.744007,1.1305186 0.411049,0 0.744007,-0.7194548 0.744007,-1.1305186 z"
       id="path11"
       style="stroke-width:0.372003" />
    <rect
       width="2.2320211"
       height="1.1160105"
       x="37.237961"
       y="22.13014"
       fill="#3f51b5"
       id="rect11"
       style="stroke-width:0.372003" />
    <rect
       width="2.2320211"
       height="1.1160105"
       x="43.934021"
       y="22.13014"
       fill="#3f51b5"
       id="rect12"
       style="stroke-width:0.372003" />
  </g>
</svg>
