<svg xmlns="http://www.w3.org/2000/svg" width="530" height="140" fill="currentColor"><path d="M75.241 68.68a5.365 5.365 0 01-5.359-5.359 5.365 5.365 0 015.359-5.359 5.365 5.365 0 015.359 5.359 5.365 5.365 0 01-5.359 5.359zm0-7.146c-.985 0-1.786.801-1.786 1.786s.801 1.786 1.786 1.786 1.786-.801 1.786-1.786a1.788 1.788 0 00-1.786-1.786z"/><circle cx="42.147" cy="63.321" r="2.419"/><circle cx="108.022" cy="63.321" r="2.419"/><circle cx="75.224" cy="102.472" r="3.759"/><circle cx="75.196" cy="24.984" r="3.759"/><circle cx="75.224" cy="117.657" r="3.759"/><circle cx="6.436" cy="63.332" r="2.419"/><path d="M11.795 62.441a5.439 5.439 0 00-5.359-4.542A5.442 5.442 0 001 63.334a5.441 5.441 0 005.435 5.431 5.44 5.44 0 005.359-4.538h11.482v-1.786H11.795zm-5.36 4.537a3.652 3.652 0 01-3.649-3.644c0-2.014 1.639-3.649 3.649-3.649s3.649 1.635 3.649 3.649a3.652 3.652 0 01-3.649 3.644z"/><circle cx="144.025" cy="63.337" r="2.419"/><path d="M144.024 57.903a5.436 5.436 0 00-5.355 4.542h-11.487v1.786h11.487a5.431 5.431 0 0010.79-.893 5.442 5.442 0 00-5.435-5.435zm0 9.08a3.648 3.648 0 01-3.644-3.644c0-2.014 1.635-3.649 3.644-3.649s3.649 1.635 3.649 3.649a3.652 3.652 0 01-3.649 3.644z"/><path d="M144.024 57.903a5.436 5.436 0 00-5.355 4.542h-11.487v1.786h11.487a5.431 5.431 0 0010.79-.893 5.442 5.442 0 00-5.435-5.435zm0 9.08a3.648 3.648 0 01-3.644-3.644c0-2.014 1.635-3.649 3.644-3.649s3.649 1.635 3.649 3.649a3.652 3.652 0 01-3.649 3.644zM75.213 43.742v11.463M74.543 43.742h1.34v11.463h-1.34zM73.371 77.163v5.676M72.701 77.163h1.34v5.676h-1.34zM77 77.163v5.676M76.33 77.163h1.34v5.676h-1.34zM94.785 61.495h-5.676M89.109 60.825h5.676v1.34h-5.676zM94.785 65.124h-5.676M89.109 64.454h5.676v1.34h-5.676zM61.312 61.495h-5.676M55.636 60.825h5.676v1.34h-5.676zM61.312 65.124h-5.676M55.636 64.454h5.676v1.34h-5.676zM73.371 43.742v5.676M72.701 43.742h1.34v5.676h-1.34zM77 43.742v5.676M76.33 43.742h1.34v5.676h-1.34zM75.213 82.862V71.399M74.543 71.4h1.34v11.463h-1.34zM94.791 63.31H83.328M83.328 62.64h11.463v1.34H83.328zM55.67 63.31h11.463M55.67 62.64h11.463v1.34H55.67zM92.165 53.531l-9.928 5.732M91.833 52.953l.67 1.16-9.927 5.733-.67-1.16zM58.285 73.092l9.927-5.732M67.88 66.783l.67 1.16-9.927 5.733-.67-1.16zM65.459 46.375l5.732 9.928M66.042 46.04l5.732 9.926-1.16.67-5.732-9.927zM85.02 80.255l-5.732-9.927M79.872 69.992l5.731 9.927-1.16.67-5.732-9.927zM58.285 53.531l9.927 5.732M58.619 52.95l9.927 5.73-.67 1.161-9.927-5.731zM92.165 73.092l-9.928-5.732M82.57 66.778l9.926 5.732-.67 1.16-9.927-5.731zM84.99 46.375l-5.731 9.928M84.41 46.045l1.16.67-5.733 9.927-1.16-.67zM65.43 80.255l5.732-9.927M70.58 69.996l1.16.67-5.732 9.928-1.16-.67zM76.357 25.984v3.582a33.28 33.28 0 00-1.139-.018c-.366 0-.728.004-1.094.013v-3.577a45.185 45.185 0 012.233 0zM76.357 9.076v5.695c-.38-.021-.759-.028-1.139-.028-.366 0-.728.007-1.094.021V9.076a29.052 29.052 0 012.233 0zM75.241 97.094c.371 0 .746-.004 1.117-.018v8.048a46.886 46.886 0 01-2.233 0v-8.048c.37.013.745.018 1.116.018zM76.357 114.056v18.137c-.384.103-.764.197-1.13.281-.357-.08-.728-.174-1.103-.277v-18.141a45.185 45.185 0 002.233 0z"/><g><path d="M69.211 12.871v.054a.545.545 0 00-.094.009c.032-.023.063-.041.094-.063zM69.211 21.928v8.012c-.746.098-1.492.214-2.233.348v-7.981a37.807 37.807 0 012.233-.379zM66.978 96.348c.741.134 1.487.25 2.233.348v8.017a36.103 36.103 0 01-2.233-.38v-7.985zM69.211 113.717v16.851a58.487 58.487 0 01-2.233-.929v-16.23c.737.12 1.483.223 2.233.308z"/></g><g><path d="M62.066 23.581v7.865c-.746.214-1.492.451-2.233.71v-7.78a37.384 37.384 0 012.233-.795zM62.066 95.187v7.874a40.388 40.388 0 01-2.233-.791v-7.789a46.12 46.12 0 002.233.706zM62.066 112.368v14.872a62.136 62.136 0 01-2.233-1.246v-14.269c.736.232 1.478.446 2.233.643z"/></g><g><path d="M54.92 26.654v7.458c-.746.339-1.492.697-2.233 1.076v-7.231a39.043 39.043 0 012.233-1.303zM54.92 92.52v7.467a38.476 38.476 0 01-2.233-1.304v-7.24c.741.376 1.487.733 2.233 1.077zM54.92 109.903v13.01a93.926 93.926 0 01-2.233-1.577V108.88c.732.362 1.478.706 2.233 1.023z"/></g><g><path d="M47.774 31.544v6.445a66.19 66.19 0 00-2.233 1.478v-5.891a40.453 40.453 0 012.233-2.032zM47.774 88.635v6.463a40.059 40.059 0 01-2.233-2.032v-5.904c.741.508 1.487.999 2.233 1.473zM47.774 106.142v11.322a76.757 76.757 0 01-2.233-1.974v-10.84a47.633 47.633 0 002.233 1.492z"/></g><g><path d="M40.628 39.311v3.863a71.58 71.58 0 00-2.233 1.903v-2.273a42.464 42.464 0 012.233-3.493zM40.628 83.445v3.886a42.464 42.464 0 01-2.233-3.493v-2.291a84.915 84.915 0 002.233 1.898zM40.628 100.702v9.848a65.201 65.201 0 01-2.233-2.577V98.54a45.545 45.545 0 002.233 2.162z"/></g><g><path d="M33.482 26.716v7.24a49.165 49.165 0 00-2.233 3.39V27.02a72.152 72.152 0 002.233-.304zM33.482 92.686v8.624a70.98 70.98 0 01-2.233-3.653v-8.361a49.165 49.165 0 002.233 3.39z"/></g><g><path d="M26.336 27.493v20.701a49.935 49.935 0 00-2.233 12.179V27.614a61.712 61.712 0 002.233-.121zM26.336 78.448v8.664a69.493 69.493 0 01-2.233-7.222V66.268a50.047 50.047 0 002.233 12.18z"/></g><g><path d="M124.141 27.493v20.701a49.935 49.935 0 012.233 12.179V27.614a61.96 61.96 0 01-2.233-.121zM124.141 78.448v8.664a69.493 69.493 0 002.233-7.222V66.268a49.952 49.952 0 01-2.233 12.18z"/></g><g><path d="M83.503 22.313v7.985a46.888 46.888 0 00-2.233-.353v-8.012c.75.103 1.496.228 2.233.38zM83.503 96.348v7.981c-.737.152-1.483.277-2.233.38v-8.012a48.17 48.17 0 002.233-.349zM83.503 113.404v16.226a51.54 51.54 0 01-2.233.933v-16.846c.75-.085 1.496-.188 2.233-.313z"/></g><g><path d="M90.649 24.38v7.789a37.917 37.917 0 00-2.233-.706V23.59c.755.241 1.501.505 2.233.79zM90.649 94.477v7.784c-.732.286-1.478.549-2.233.79v-7.86a46.244 46.244 0 002.233-.714zM90.649 111.716v14.269c-.75.438-1.496.853-2.233 1.246v-14.868c.75-.196 1.496-.41 2.233-.647z"/></g><g><path d="M97.795 27.971v7.24a53.74 53.74 0 00-2.233-1.081v-7.463c.759.411 1.505.844 2.233 1.304zM97.795 91.44v7.231c-.728.46-1.474.893-2.233 1.304v-7.458a56.971 56.971 0 002.233-1.077zM97.795 108.871v12.452a76.004 76.004 0 01-2.233 1.572v-12.996c.755-.322 1.5-.666 2.233-1.028z"/></g><g><path d="M104.941 33.594v5.9a59.205 59.205 0 00-2.233-1.474v-6.458a42.266 42.266 0 012.233 2.032zM104.941 87.157v5.891c-.719.701-1.46 1.38-2.233 2.032v-6.445a69.941 69.941 0 002.233-1.478zM104.941 104.637v10.835a69.964 69.964 0 01-2.233 1.974v-11.317c.759-.478 1.5-.974 2.233-1.492z"/></g><g><path d="M112.086 42.843v2.269a76.531 76.531 0 00-2.233-1.903v-3.868a41.768 41.768 0 012.233 3.502zM112.086 81.543v2.255a41.937 41.937 0 01-2.233 3.501v-3.85a76.673 76.673 0 002.233-1.906zM112.086 98.523v9.428a74.9 74.9 0 01-2.233 2.581v-9.848a49.96 49.96 0 002.233-2.161z"/></g><g><path d="M119.232 89.265v8.356a71.864 71.864 0 01-2.233 3.658v-8.615a50.733 50.733 0 002.233-3.399zM119.232 26.671v10.705a50.611 50.611 0 00-2.233-3.399v-7.659c.742.13 1.487.246 2.233.353z"/></g><g><path d="M133.049 21.665c-20.71 0-42.384-7.592-56.559-19.816L75.03.594l-1.456 1.255c-14.828 12.787-33.661 19.83-53.031 19.83-.715 0-3.113-.013-3.113-.013l-2.246-.009v38.422h4.466V26.14c.371 0 .697.004.893.004 19.812 0 39.088-6.976 54.496-19.687 14.421 11.742 35.425 19.137 55.778 19.647v33.978h4.466V21.665h-2.234zm-24.314 93.959c-11.268 11.206-24.841 17.985-33.505 19.821-8.655-1.84-22.232-8.615-33.501-19.821-9.517-9.473-20.768-25.546-21.973-49.293h-4.471c2.242 46.618 41.379 70.016 59.516 73.584l.429.085.433-.085c18.137-3.568 57.269-26.962 59.516-73.58h-4.471c-1.205 23.747-12.451 39.816-21.973 49.289z"/></g><g><path d="M75.389 94.86c-17.437 0-34.438-10.45-49.163-30.219l-.994-1.334.993-1.334C40.934 42.221 57.927 31.78 75.366 31.78c17.442 0 34.443 10.45 49.164 30.22l.993 1.334-.994 1.334C109.816 84.42 92.824 94.86 75.389 94.86zM30.816 63.307c13.604 17.73 28.989 27.087 44.573 27.087 15.581 0 30.959-9.35 44.551-27.061-13.6-17.73-28.985-27.087-44.573-27.087-15.586.001-30.964 9.35-44.551 27.061z"/></g><g><path d="M75.388 20.084c20.138 0 37.19 13.3 42.665 31.486a106.701 106.701 0 015.985 6.923c-2.827-24.104-23.568-42.875-48.65-42.875-25.073 0-45.805 18.758-48.645 42.848a106.922 106.922 0 015.989-6.931c5.489-18.169 22.532-31.451 42.656-31.451zm0 88.099c-20.138 0-37.194-13.296-42.665-31.486a109.706 109.706 0 01-5.985-6.927c2.827 24.108 23.568 42.879 48.65 42.879 25.068 0 45.805-18.753 48.645-42.844a107.272 107.272 0 01-5.989 6.923c-5.484 18.173-22.531 31.455-42.656 31.455z"/></g><path d="M112.086 25.376v2.742a51.104 51.104 0 00-2.233-2.162v-1.099a72.83 72.83 0 002.233.519zM38.306 25.376v2.742a51.104 51.104 0 012.233-2.162v-1.099a72.15 72.15 0 01-2.233.519z"/><g><path d="M75.239 89.015c-14.16 0-25.68-11.52-25.68-25.68s11.52-25.68 25.68-25.68 25.68 11.52 25.68 25.68-11.52 25.68-25.68 25.68zm0-46.894c-11.697 0-21.214 9.517-21.214 21.214s9.517 21.214 21.214 21.214 21.214-9.517 21.214-21.214-9.517-21.214-21.214-21.214z"/></g><g><path d="M525.857 123.727v5h-64.36a5.626 5.626 0 01-5.05 3.14 5.64 5.64 0 110-11.28c2.22 0 4.14 1.28 5.05 3.14h64.36z"/></g><path d="M401 17.176h125v5H401zM162.214 17.176h125v5h-125z"/><g><path d="M171.614 84.757c.83 3.952 2.216 6.897 4.159 8.841 1.942 1.941 4.789 2.913 8.542 2.913 1.958 0 3.718-.331 5.279-.996 1.56-.664 2.814-1.734 3.76-3.212s1.419-3.329 1.419-5.554c0-2.059-.382-3.843-1.146-5.354-.764-1.51-1.992-2.945-3.686-4.308-1.693-1.361-4.051-2.806-7.072-4.333-2.59-1.295-4.931-2.64-7.022-4.034s-3.877-2.93-5.354-4.606a19.338 19.338 0 01-3.437-5.504c-.814-1.992-1.22-4.233-1.22-6.724 0-4.084 1.012-7.553 3.038-10.409 2.025-2.855 4.956-5.021 8.791-6.5 3.835-1.477 8.275-2.216 13.323-2.216 2.955 0 5.777.158 8.467.474s5.76.871 9.214 1.668v14.443h-6.823c-.631-2.622-1.437-4.707-2.416-6.25-.98-1.545-2.2-2.682-3.661-3.412-1.461-.729-3.304-1.096-5.528-1.096-1.893 0-3.586.332-5.08.996-1.494.665-2.673 1.652-3.536 2.963-.864 1.313-1.295 2.897-1.295 4.757 0 1.926.374 3.595 1.121 5.005.747 1.412 2 2.789 3.76 4.135 1.759 1.344 4.316 2.881 7.67 4.606 4.084 2.125 7.296 4.208 9.637 6.251 2.341 2.041 4.067 4.267 5.18 6.674 1.112 2.407 1.668 5.204 1.668 8.392 0 4.084-.946 7.629-2.839 10.634s-4.649 5.313-8.268 6.922c-3.62 1.611-7.803 2.416-12.551 2.416-3.387 0-6.915-.191-10.583-.572-3.669-.382-7.114-.938-10.334-1.669v-15.34h6.823zM267.139 33.558v15.838h-6.823c-1.096-3.154-2.026-5.287-2.789-6.399-.764-1.112-1.677-1.992-2.739-2.641-1.063-.646-2.873-.971-5.429-.971h-10.857v23.906h6.574c1.46 0 2.606-.207 3.437-.623.83-.414 1.519-1.103 2.067-2.066.548-.963 1.071-2.457 1.569-4.482h5.628v20.22h-5.628c-.465-1.925-.98-3.395-1.544-4.408-.565-1.012-1.237-1.734-2.017-2.166-.781-.431-1.951-.647-3.511-.647h-6.574v26.596h10.808c1.162 0 2.142-.075 2.938-.224a6.712 6.712 0 002.142-.772c.63-.365 1.236-.863 1.818-1.494a13.16 13.16 0 001.544-2.042c.448-.729.921-1.693 1.419-2.889s1.046-2.839 1.644-4.931h6.823l-.946 18.179h-48.958v-3.287c1.228-.331 2.199-.688 2.914-1.07.713-.382 1.245-.913 1.594-1.594s.573-1.545.672-2.59c.1-1.047.149-2.366.149-3.96V46.109c0-1.561-.042-2.871-.125-3.935-.083-1.063-.299-1.925-.647-2.59-.349-.664-.88-1.203-1.594-1.619-.714-.414-1.702-.788-2.963-1.12v-3.287h49.404zM326.058 33.558v15.838h-6.823c-1.096-3.154-2.026-5.287-2.789-6.399-.764-1.112-1.677-1.992-2.739-2.641-1.063-.646-2.873-.971-5.429-.971H297.42v23.906h6.574c1.46 0 2.606-.207 3.437-.623.83-.414 1.519-1.103 2.067-2.066.548-.963 1.071-2.457 1.569-4.482h5.628v20.22h-5.628c-.465-1.925-.98-3.395-1.544-4.408-.565-1.012-1.237-1.734-2.017-2.166-.781-.431-1.951-.647-3.511-.647h-6.574v26.596h10.808c1.162 0 2.142-.075 2.938-.224a6.712 6.712 0 002.142-.772c.63-.365 1.236-.863 1.818-1.494a13.16 13.16 0 001.544-2.042c.448-.729.921-1.693 1.419-2.889s1.046-2.839 1.644-4.931h6.823l-.946 18.179h-48.958v-3.287c1.228-.331 2.199-.688 2.914-1.07.713-.382 1.245-.913 1.594-1.594s.573-1.545.672-2.59c.1-1.047.149-2.366.149-3.96V46.109c0-1.561-.042-2.871-.125-3.935-.083-1.063-.299-1.925-.647-2.59-.349-.664-.88-1.203-1.594-1.619-.714-.414-1.702-.788-2.963-1.12v-3.287h49.405zM368.741 75.394V89.04c0 1.761.05 3.097.149 4.009.1.914.281 1.652.548 2.217.266.565.589 1.021.971 1.369.382.35.913.665 1.594.947s1.602.506 2.765.672v3.287h-27.492v-3.287c1.361-.231 2.448-.53 3.263-.896.813-.365 1.419-.896 1.817-1.594s.655-1.585.772-2.664c.115-1.079.174-2.433.174-4.06V75.394l-13.497-28.488c-1.163-2.423-2.075-4.216-2.739-5.379-.765-1.361-1.42-2.341-1.967-2.938-.549-.598-1.055-1.013-1.52-1.245-.466-.231-1.113-.398-1.942-.498v-3.287h26.546v3.287c-2.558.332-3.835 1.594-3.835 3.785 0 .864.207 1.893.622 3.088s1.088 2.789 2.018 4.781l8.417 18.727 9.114-18.278c.896-1.825 1.52-3.345 1.867-4.557.35-1.212.523-2.416.523-3.611s-.341-2.133-1.021-2.814c-.681-.68-1.636-1.053-2.863-1.12V33.56h19.972v3.287c-.896.199-1.636.474-2.216.821-.582.35-1.221.896-1.918 1.645-.697.746-1.527 1.867-2.49 3.361-.964 1.494-2.075 3.437-3.337 5.827l-14.295 26.893zM422.53 102.339c-9.762 0-17.092-2.855-21.989-8.566-4.897-5.71-7.346-14.261-7.346-25.649 0-7.471 1.187-13.854 3.561-19.149s5.869-9.321 10.484-12.078c4.614-2.756 10.11-4.134 16.485-4.134 9.928 0 17.382 2.848 22.362 8.542s7.471 14.152 7.471 25.375c0 6.275-.739 11.663-2.217 16.162s-3.578 8.192-6.3 11.081c-2.723 2.889-5.985 5.014-9.786 6.375-3.802 1.36-8.044 2.041-12.725 2.041zm-13.497-35.561c0 10.028 1.203 17.49 3.611 22.387 2.406 4.898 6.083 7.347 11.031 7.347 2.557 0 4.731-.688 6.524-2.067 1.793-1.377 3.245-3.303 4.358-5.777 1.111-2.473 1.908-5.403 2.391-8.79.48-3.387.722-7.104.722-11.156 0-6.606-.522-12.144-1.569-16.61-1.045-4.465-2.623-7.835-4.73-10.109-2.109-2.274-4.807-3.412-8.094-3.412-4.814 0-8.393 2.3-10.732 6.898-2.342 4.597-3.512 11.694-3.512 21.289zM507.496 46.059c0-2.49-.108-4.225-.323-5.205-.217-.979-.641-1.768-1.271-2.365-.631-.598-1.86-1.146-3.686-1.644v-3.287h21.914v3.287c-1.195.332-2.142.689-2.839 1.071s-1.229.913-1.594 1.594c-.366.681-.598 1.543-.697 2.59-.1 1.045-.149 2.365-.149 3.959v31.128c0 4.117-.332 7.563-.996 10.335-.665 2.772-1.693 5.104-3.088 6.997s-3.13 3.42-5.204 4.582c-2.076 1.163-4.408 1.992-6.998 2.49s-5.496.747-8.716.747c-4.715 0-8.699-.49-11.953-1.469-3.255-.979-5.901-2.457-7.944-4.434-2.041-1.975-3.553-4.374-4.531-7.196-.98-2.821-1.47-6.457-1.47-10.907V46.109c0-1.561-.042-2.871-.124-3.935-.084-1.063-.299-1.925-.648-2.59-.348-.664-.88-1.203-1.594-1.619-.714-.414-1.701-.788-2.963-1.12v-3.287h26.147v3.287c-1.362.366-2.366.756-3.013 1.171-.648.415-1.139.921-1.47 1.519-.332.598-.565 1.378-.697 2.341-.133.964-.199 2.374-.199 4.233V78.98c0 2.623.166 5.014.498 7.172.331 2.159.938 4.009 1.817 5.554a9.004 9.004 0 003.661 3.561c1.561.83 3.568 1.245 6.026 1.245 3.387 0 5.909-.68 7.57-2.042 1.66-1.361 2.83-3.262 3.512-5.703.68-2.439 1.021-6.083 1.021-10.932V46.059z"/></g><g><path d="M256.423 132.971c.325 1.55.869 2.705 1.631 3.467s1.878 1.143 3.35 1.143c.768 0 1.458-.13 2.07-.391.612-.261 1.104-.681 1.475-1.26s.557-1.306.557-2.178c0-.808-.15-1.507-.449-2.1-.3-.593-.781-1.155-1.445-1.689s-1.589-1.101-2.773-1.699c-1.016-.508-1.934-1.035-2.754-1.582s-1.521-1.149-2.1-1.807a7.57 7.57 0 01-1.348-2.158c-.319-.781-.479-1.66-.479-2.637 0-1.602.397-2.962 1.191-4.082.794-1.12 1.943-1.97 3.447-2.549s3.245-.869 5.225-.869c1.159 0 2.266.062 3.32.186s2.259.342 3.613.654v5.664h-2.676c-.248-1.028-.563-1.846-.947-2.451s-.863-1.052-1.436-1.338c-.573-.286-1.296-.43-2.168-.43-.742 0-1.406.13-1.992.391s-1.048.647-1.387 1.162c-.339.515-.508 1.136-.508 1.865 0 .755.146 1.409.439 1.963s.784 1.094 1.475 1.621c.69.527 1.692 1.13 3.008 1.807 1.602.833 2.861 1.65 3.779 2.451s1.595 1.673 2.031 2.617c.436.944.654 2.041.654 3.291 0 1.602-.371 2.991-1.113 4.17s-1.823 2.083-3.242 2.715c-1.419.632-3.06.947-4.922.947-1.328 0-2.712-.075-4.15-.225a34.41 34.41 0 01-4.053-.654v-6.016h2.677zM293.884 112.893v6.211h-2.676c-.43-1.237-.794-2.073-1.094-2.51a3.532 3.532 0 00-1.074-1.035c-.417-.254-1.126-.381-2.129-.381h-4.258v9.375h2.578c.573 0 1.022-.081 1.348-.244.325-.163.596-.433.811-.811s.42-.964.615-1.758h2.207v7.93h-2.207c-.183-.755-.384-1.331-.605-1.729-.222-.397-.485-.681-.791-.85-.306-.169-.765-.254-1.377-.254h-2.578v10.43h4.238c.456 0 .84-.029 1.152-.088.313-.059.592-.159.84-.303a3.11 3.11 0 00.713-.586c.228-.247.43-.515.605-.801s.361-.664.557-1.133.41-1.113.645-1.934h2.676l-.371 7.129H274.51v-1.289c.481-.13.862-.271 1.143-.42.28-.149.488-.358.625-.625s.225-.605.264-1.016.059-.928.059-1.553v-16.836c0-.612-.017-1.126-.049-1.543-.033-.417-.117-.755-.254-1.016s-.345-.472-.625-.635c-.28-.163-.667-.31-1.162-.439v-1.289h19.373zM316.619 113.499v5.664h-2.656c-.313-1.472-.808-2.556-1.484-3.252-.677-.696-1.563-1.045-2.656-1.045-2.058 0-3.613.986-4.668 2.959s-1.582 4.899-1.582 8.779c0 3.606.481 6.338 1.445 8.193.963 1.855 2.376 2.783 4.238 2.783.95 0 1.725-.159 2.324-.479.599-.319 1.077-.798 1.436-1.436.358-.638.667-1.536.928-2.695h2.676v5.918a39.7 39.7 0 01-3.926.742 28.275 28.275 0 01-3.691.234c-2.708 0-4.919-.488-6.631-1.465-1.712-.977-2.976-2.451-3.789-4.424-.814-1.973-1.221-4.47-1.221-7.49 0-2.825.479-5.283 1.436-7.373s2.366-3.701 4.229-4.834c1.862-1.133 4.088-1.699 6.68-1.699 1.315 0 2.506.071 3.574.215 1.065.145 2.178.38 3.338.705zM337.361 117.796c0-.977-.042-1.657-.127-2.041-.085-.384-.251-.693-.498-.928-.248-.234-.729-.449-1.445-.645v-1.289h8.594v1.289c-.469.13-.84.271-1.113.42a1.518 1.518 0 00-.625.625c-.144.267-.234.605-.273 1.016s-.059.928-.059 1.553v12.207c0 1.614-.13 2.966-.391 4.053-.261 1.087-.664 2.002-1.211 2.744s-1.228 1.341-2.041 1.797c-.814.456-1.729.781-2.744.977s-2.155.293-3.418.293c-1.849 0-3.412-.192-4.688-.576-1.276-.384-2.314-.964-3.115-1.738s-1.394-1.716-1.777-2.822c-.384-1.106-.576-2.532-.576-4.277v-12.637c0-.612-.017-1.126-.049-1.543-.033-.417-.117-.755-.254-1.016s-.345-.472-.625-.635c-.28-.163-.667-.31-1.162-.439v-1.289h10.254v1.289c-.534.144-.928.296-1.182.459s-.446.361-.576.596c-.13.234-.222.54-.273.918-.052.378-.078.931-.078 1.66v12.891c0 1.028.065 1.966.195 2.813.13.847.368 1.572.713 2.178a3.522 3.522 0 001.436 1.396c.612.325 1.399.488 2.363.488 1.328 0 2.317-.267 2.969-.801.651-.534 1.11-1.279 1.377-2.236.267-.957.4-2.386.4-4.287v-12.463zM357.458 139.553h-10.254v-1.289c.481-.13.862-.271 1.143-.42.279-.149.488-.358.625-.625s.225-.605.264-1.016.059-.928.059-1.553v-16.836c0-.612-.017-1.126-.049-1.543-.033-.417-.117-.755-.254-1.016s-.346-.472-.625-.635c-.28-.163-.668-.31-1.162-.439v-1.289h11.387c1.536 0 2.842.107 3.916.322s2.015.544 2.822.986c.677.364 1.25.823 1.719 1.377s.83 1.198 1.084 1.934.381 1.592.381 2.568c0 1.276-.225 2.37-.674 3.281s-1.055 1.67-1.816 2.275-1.781 1.175-3.057 1.709v.195c.963.417 1.761.974 2.393 1.67.631.696 1.201 1.579 1.709 2.646l1.23 2.656c.547 1.185 1.09 2.073 1.631 2.666.54.593 1.182.954 1.924 1.084v1.289h-7.52c-.756-1.042-1.608-2.591-2.559-4.648l-1.523-3.34c-.456-.989-.847-1.692-1.172-2.109-.326-.417-.661-.703-1.006-.859-.346-.156-.876-.234-1.592-.234h-1.133v6.289c0 .977.045 1.66.137 2.051.091.391.267.703.527.938.26.234.742.442 1.445.625v1.29zm-2.109-24.336v10.859h1.934c1.041 0 1.9-.14 2.578-.42.677-.28 1.214-.671 1.611-1.172.396-.501.67-1.091.82-1.768.149-.677.225-1.419.225-2.227 0-1.771-.417-3.099-1.25-3.984-.834-.886-2.07-1.328-3.711-1.328-1.12.001-1.855.014-2.207.04zM381.814 134.651c0 .456.013.879.039 1.27.025.391.078.71.156.957s.191.456.342.625c.149.169.354.315.615.439.26.124.579.231.957.322v1.289h-10.254v-1.289c.481-.13.862-.271 1.143-.42.279-.149.488-.358.625-.625s.225-.605.264-1.016.059-.928.059-1.553v-16.855c0-.625-.017-1.14-.049-1.543-.033-.403-.117-.739-.254-1.006s-.346-.479-.625-.635c-.28-.156-.668-.3-1.162-.43v-1.289h10.254v1.289c-.534.144-.928.296-1.182.459s-.446.361-.576.596c-.131.234-.222.54-.273.918-.053.378-.078.931-.078 1.66v16.837zM393.181 139.553v-1.289c.547-.091.979-.212 1.299-.361.318-.149.557-.361.713-.635s.254-.622.293-1.045.059-.947.059-1.572v-19.473h-1.582c-.781 0-1.381.091-1.797.273a2.8 2.8 0 00-1.084.859c-.307.391-.57.915-.791 1.572a22.539 22.539 0 00-.547 1.865h-2.676v-6.855h22.988v6.855h-2.676a39.25 39.25 0 00-.586-1.953c-.144-.417-.303-.771-.478-1.064s-.361-.537-.557-.732-.404-.352-.625-.469c-.222-.117-.498-.205-.83-.264s-.766-.088-1.299-.088h-1.406v19.473c0 .69.02 1.214.059 1.572s.11.647.215.869c.104.222.23.4.381.537.149.137.357.261.625.371.267.11.628.198 1.084.264v1.289h-10.782zM426.228 129.299v5.352c0 .69.02 1.214.059 1.572s.11.647.215.869.231.4.381.537.358.261.625.371.628.198 1.084.264v1.289H417.81v-1.289c.534-.091.96-.208 1.279-.352s.557-.352.713-.625.257-.622.303-1.045.068-.954.068-1.592v-5.352l-5.293-11.172c-.456-.95-.814-1.653-1.074-2.109-.3-.534-.557-.918-.771-1.152s-.414-.397-.596-.488c-.183-.091-.437-.156-.762-.195v-1.289h10.41v1.289c-1.003.13-1.504.625-1.504 1.484 0 .339.081.742.244 1.211s.427 1.094.791 1.875l3.301 7.344 3.574-7.168c.352-.716.596-1.312.732-1.787s.205-.947.205-1.416-.134-.837-.4-1.104-.642-.413-1.123-.439v-1.289h7.832v1.289c-.352.078-.642.186-.869.322s-.479.352-.752.645-.599.732-.977 1.318-.813 1.348-1.309 2.285l-5.604 10.547z"/></g><g><path d="M238.107 126.227c0 3.11-2.53 5.64-5.64 5.64-2.21 0-4.13-1.28-5.05-3.14h-62.31v-5h62.31a5.637 5.637 0 0110.69 2.5z"/></g><g><path d="M222.372 1.169v2.795h-1.204c-.193-.557-.357-.933-.492-1.129s-.296-.352-.483-.466-.507-.171-.958-.171h-1.916v4.219h1.16c.258 0 .46-.037.606-.11s.268-.195.365-.365.189-.434.277-.791h.993v3.568h-.993c-.082-.34-.173-.599-.272-.778s-.218-.306-.356-.382-.344-.114-.62-.114h-1.16v4.693h1.907c.205 0 .378-.013.519-.04s.267-.072.378-.136.218-.152.321-.264.193-.231.272-.36.163-.299.25-.51.185-.501.29-.87h1.204l-.167 3.208h-8.64v-.58c.217-.059.388-.122.514-.189s.22-.161.281-.281.101-.272.119-.457.026-.417.026-.699V3.384c0-.275-.007-.507-.022-.694s-.053-.34-.114-.457-.155-.212-.281-.286-.3-.139-.523-.198v-.58h8.719zM225.149 10.205c.146.697.391 1.217.734 1.56s.845.514 1.507.514c.346 0 .656-.059.932-.176s.497-.306.664-.567.25-.587.25-.98c0-.363-.067-.678-.202-.945s-.352-.52-.65-.76-.715-.495-1.248-.765c-.457-.229-.87-.466-1.239-.712s-.684-.517-.945-.813-.463-.62-.606-.971-.215-.747-.215-1.187c0-.721.179-1.333.536-1.837s.875-.886 1.551-1.147 1.46-.391 2.351-.391c.521 0 1.02.028 1.494.083s1.017.154 1.626.294v2.549h-1.204c-.111-.463-.253-.831-.426-1.103s-.388-.473-.646-.602-.583-.193-.976-.193c-.334 0-.633.059-.896.176s-.472.292-.624.523-.229.511-.229.839c0 .34.066.634.198.883s.353.492.664.729.762.508 1.354.813c.721.375 1.288.743 1.701 1.103s.718.753.914 1.178.294.918.294 1.481c0 .721-.167 1.346-.501 1.876s-.82.938-1.459 1.222-1.377.426-2.215.426c-.598 0-1.22-.034-1.868-.101s-1.255-.166-1.824-.294v-2.707h1.203zM235.713 10.512v2.654h-2.364v-2.654h2.364z"/></g><g><path d="M455.827 1.169v2.795h-1.204c-.193-.557-.357-.933-.492-1.129s-.296-.352-.483-.466-.507-.171-.958-.171h-1.916v4.219h1.16c.258 0 .46-.037.606-.11s.269-.195.365-.365.188-.434.276-.791h.993v3.568h-.993c-.082-.34-.173-.599-.272-.778s-.218-.306-.355-.382-.345-.114-.62-.114h-1.16v4.693h1.907c.205 0 .378-.013.519-.04s.267-.072.378-.136.219-.152.321-.264.193-.231.272-.36.162-.299.25-.51.185-.501.29-.87h1.204l-.167 3.208h-8.64v-.58c.217-.059.389-.122.515-.189s.22-.161.281-.281.101-.272.118-.457.026-.417.026-.699V3.384c0-.275-.007-.507-.021-.694s-.053-.34-.114-.457-.155-.212-.281-.286-.301-.139-.523-.198v-.58h8.718zM458.604 10.205c.146.697.392 1.217.734 1.56s.845.514 1.507.514c.346 0 .656-.059.932-.176s.497-.306.664-.567.25-.587.25-.98c0-.363-.067-.678-.202-.945s-.352-.52-.65-.76-.715-.495-1.248-.765c-.457-.229-.87-.466-1.239-.712s-.684-.517-.944-.813-.463-.62-.606-.971-.216-.747-.216-1.187c0-.721.179-1.333.536-1.837s.875-.886 1.552-1.147 1.46-.391 2.351-.391c.521 0 1.02.028 1.494.083s1.017.154 1.626.294v2.549h-1.204c-.111-.463-.253-.831-.426-1.103s-.389-.473-.646-.602-.583-.193-.976-.193c-.334 0-.633.059-.896.176s-.472.292-.624.523-.229.511-.229.839c0 .34.066.634.198.883s.353.492.663.729.762.508 1.354.813c.721.375 1.288.743 1.701 1.103s.718.753.914 1.178.294.918.294 1.481c0 .721-.167 1.346-.501 1.876s-.82.938-1.459 1.222-1.377.426-2.215.426c-.598 0-1.22-.034-1.867-.101s-1.256-.166-1.824-.294v-2.707h1.202zM469.169 10.512v2.654h-2.364v-2.654h2.364zM476.701 11.013c.381 0 .665-.028.853-.083s.336-.152.444-.29.197-.344.268-.62h1.011l-.202 3.146h-8.051v-.58c.246-.563.603-1.175 1.068-1.837s1.032-1.386 1.7-2.171c.633-.744 1.115-1.356 1.446-1.837s.578-.935.742-1.362.246-.87.246-1.327c0-.645-.144-1.15-.431-1.516s-.68-.549-1.178-.549c-.469 0-.856.166-1.164.497s-.532.854-.673 1.569h-1.582V1.978c.715-.287 1.274-.488 1.679-.602s.805-.201 1.2-.259.824-.088 1.287-.088c.861 0 1.564.116 2.109.347s.939.545 1.183.94.364.857.364 1.384c0 .463-.086.894-.259 1.292s-.472.853-.896 1.362-1.142 1.239-2.149 2.188c-.451.439-.873.883-1.266 1.332s-.683.798-.87 1.05v.088h3.121z"/></g></svg>